<svg width="3638" height="3047" xmlns="http://www.w3.org/2000/svg" xmlns:xlink="http://www.w3.org/1999/xlink" xml:space="preserve" overflow="hidden"><g><g><g><g><path d="M1231.84 1471.41C1225.53 1462.55 1215.94 1456.59 1205.21 1454.84 1186.62 1451.62 1168 1448.72 1149.34 1446.12L1149.34 1312.8C1149.39 1289.94 1134.86 1269.59 1113.23 1262.21L1112.83 1262.08 1112.41 1262.08 927.307 1206.09C918.99 1203.29 910.274 1201.87 901.5 1201.88 892.734 1201.87 884.026 1203.29 875.718 1206.09L690.587 1262.03 690.166 1262.03 689.77 1262.16C668.161 1269.54 653.644 1289.85 653.66 1312.68L653.66 1446C635.002 1448.61 616.378 1451.51 597.786 1454.72 587.055 1456.46 577.469 1462.43 571.162 1471.29 565.952 1478.65 563.942 1487.81 565.59 1496.67L592.833 1638.81C596.785 1657.96 615.216 1670.53 634.491 1667.22 640.93 1666.1 647.369 1665.06 653.833 1664.02 654.205 1699.49 667.752 1733.94 694.203 1766.46 714.388 1791.22 742.176 1815.05 776.775 1837.09 813.562 1860.27 852.737 1879.43 893.624 1894.23L901.748 1897 909.846 1894.15C950.67 1879.03 989.786 1859.64 1026.55 1836.32 1061.22 1814.03 1088.88 1790.36 1109.02 1765.66 1135.47 1733.24 1149.04 1699.04 1149.41 1664.12 1155.88 1665.16 1162.32 1666.2 1168.76 1667.31 1170.79 1667.66 1172.84 1667.83 1174.9 1667.84 1192.12 1667.85 1206.96 1655.75 1210.41 1638.88L1237.53 1496.8C1239.14 1487.91 1237.09 1478.76 1231.84 1471.41Z" fill="#002050"/><path d="M678.6 1659.34 678.6 1662.66C678.6 1794.74 901.5 1870.85 901.5 1870.85 901.5 1870.85 1124.4 1792.78 1124.4 1662.66L1124.4 1660.41C976.607 1638.85 826.494 1638.49 678.6 1659.34Z" fill="#0064B5"/><path d="M1124.4 1442.83 1124.4 1313.72C1124.41 1301.52 1116.67 1290.66 1105.13 1286.7L919.753 1230.65C907.935 1226.63 895.115 1226.63 883.297 1230.65L697.769 1286.7C686.269 1290.7 678.571 1301.55 678.6 1313.72L678.6 1442.83C826.616 1424.2 976.384 1424.2 1124.4 1442.83Z" fill="#505050"/><path d="M787.573 1397.26C784.779 1398.63 781.691 1399.28 778.583 1399.17 774.4 1399.35 770.341 1397.72 767.438 1394.71 764.573 1391.49 763.072 1387.28 763.253 1382.97 763.053 1378.3 764.75 1373.74 767.958 1370.34 771.064 1367.08 775.397 1365.28 779.896 1365.38 782.52 1365.3 785.133 1365.75 787.573 1366.72L787.573 1370.78C785.206 1369.49 782.545 1368.82 779.846 1368.85 776.417 1368.72 773.1 1370.08 770.757 1372.59 768.362 1375.32 767.111 1378.87 767.265 1382.5 767.082 1385.96 768.254 1389.37 770.534 1391.98 772.729 1394.35 775.85 1395.65 779.078 1395.53 782.046 1395.64 784.988 1394.93 787.573 1393.47ZM820.835 1398.62 803.498 1398.62 803.498 1366.05 820.042 1366.05 820.042 1369.52 807.387 1369.52 807.387 1380.34 819.151 1380.34 819.151 1383.79 807.387 1383.79 807.387 1395.18 820.835 1395.18ZM859.768 1398.62 855.236 1398.62 849.787 1389.51C849.347 1388.75 848.859 1388.02 848.326 1387.33 847.905 1386.79 847.423 1386.3 846.89 1385.87 846.4 1385.5 845.857 1385.22 845.28 1385.02 844.66 1384.85 844.017 1384.76 843.373 1384.78L840.227 1384.78 840.227 1398.62 836.413 1398.62 836.413 1366.05 846.146 1366.05C847.479 1366.04 848.806 1366.22 850.084 1366.6 851.231 1366.92 852.301 1367.46 853.23 1368.21 854.109 1368.96 854.818 1369.89 855.31 1370.93 856.218 1373.14 856.297 1375.6 855.533 1377.87 855.199 1378.77 854.704 1379.61 854.072 1380.34 853.432 1381.09 852.67 1381.73 851.818 1382.23 850.884 1382.78 849.875 1383.2 848.821 1383.46 849.326 1383.68 849.8 1383.97 850.233 1384.31 850.662 1384.62 851.053 1384.99 851.397 1385.4 851.744 1385.82 852.115 1386.31 852.462 1386.83 852.809 1387.35 853.23 1388 853.651 1388.71ZM840.227 1369.52 840.227 1381.31 845.404 1381.31C846.305 1381.33 847.203 1381.19 848.054 1380.89 848.831 1380.62 849.547 1380.2 850.159 1379.65 850.765 1379.1 851.239 1378.43 851.546 1377.67 851.897 1376.84 852.066 1375.94 852.041 1375.04 852.144 1373.5 851.521 1372 850.357 1370.98 848.941 1369.9 847.178 1369.38 845.404 1369.52ZM890.751 1369.52 881.34 1369.52 881.34 1398.62 877.526 1398.62 877.526 1369.52 868.139 1369.52 868.139 1366.05 890.751 1366.05ZM908.93 1398.62 905.091 1398.62 905.091 1366.05 908.93 1366.05ZM943.405 1369.52 930.7 1369.52 930.7 1380.79 942.464 1380.79 942.464 1384.21 930.7 1384.21 930.7 1398.62 926.861 1398.62 926.861 1366.05 943.405 1366.05ZM962.723 1398.62 958.909 1398.62 958.909 1366.05 962.723 1366.05ZM997.892 1398.62 980.555 1398.62 980.555 1366.05 997.099 1366.05 997.099 1369.52 984.369 1369.52 984.369 1380.34 996.158 1380.34 996.158 1383.79 984.369 1383.79 984.369 1395.18 997.842 1395.18ZM1013.47 1398.62 1013.47 1366.05 1022.46 1366.05C1034.02 1366.05 1039.8 1371.35 1039.8 1381.93 1039.99 1386.47 1038.26 1390.88 1035.02 1394.06 1031.52 1397.22 1026.92 1398.86 1022.21 1398.62ZM1017.28 1369.52 1017.28 1395.18 1022.24 1395.18C1025.87 1395.39 1029.43 1394.15 1032.14 1391.74 1034.64 1389.14 1035.94 1385.62 1035.71 1382.03 1035.71 1373.69 1031.28 1369.56 1022.41 1369.64ZM812.538 1338.14 802.78 1338.14 802.78 1311.94C802.78 1309.11 802.904 1305.99 803.152 1302.58L802.904 1302.58C802.573 1304.54 802.118 1306.47 801.542 1308.37L791.288 1338.09 783.214 1338.09 772.713 1308.67C772.138 1306.67 771.675 1304.63 771.326 1302.58L771.054 1302.58C771.326 1306.89 771.45 1310.68 771.45 1313.92L771.45 1338.14 762.633 1338.14 762.633 1294.4 777.072 1294.4 786.038 1320.36C786.725 1322.39 787.239 1324.48 787.573 1326.6L787.771 1326.6C788.316 1324.12 788.911 1322.07 789.505 1320.26L798.446 1294.4 812.538 1294.4ZM826.432 1301.83C824.956 1301.89 823.516 1301.36 822.42 1300.37 821.411 1299.47 820.841 1298.18 820.86 1296.83 820.817 1295.47 821.391 1294.17 822.42 1293.29 824.774 1291.44 828.09 1291.44 830.444 1293.29 831.459 1294.18 832.022 1295.48 831.98 1296.83 832.016 1298.19 831.455 1299.51 830.444 1300.42 829.337 1301.39 827.901 1301.89 826.432 1301.83ZM831.187 1338.04 821.528 1338.04 821.528 1306.79 831.187 1306.79ZM862.988 1337C860.057 1338.43 856.808 1339.09 853.552 1338.91 849.237 1339.09 845.035 1337.51 841.911 1334.53 838.913 1331.56 837.296 1327.47 837.453 1323.26 837.208 1318.59 838.933 1314.03 842.209 1310.7 845.688 1307.53 850.288 1305.88 854.988 1306.12 857.736 1305.92 860.489 1306.42 862.988 1307.58L862.988 1315.75C861.056 1314.27 858.685 1313.48 856.251 1313.5 853.81 1313.39 851.43 1314.29 849.663 1315.98 847.958 1317.78 847.063 1320.21 847.187 1322.69 847.089 1325.04 847.916 1327.33 849.49 1329.08 851.197 1330.72 853.514 1331.57 855.88 1331.43 858.397 1331.4 860.847 1330.61 862.913 1329.18ZM889.711 1315.58C888.461 1314.92 887.062 1314.6 885.649 1314.64 883.717 1314.53 881.859 1315.39 880.696 1316.94 879.412 1318.77 878.784 1320.98 878.913 1323.21L878.913 1338.07 869.303 1338.07 869.303 1306.79 878.938 1306.79 878.938 1312.61C879.871 1308.82 883.29 1306.19 887.185 1306.24 888.027 1306.19 888.87 1306.32 889.661 1306.61ZM908.93 1338.98C904.378 1339.26 899.908 1337.68 896.547 1334.6 893.458 1331.44 891.832 1327.13 892.064 1322.71 891.81 1318.19 893.504 1313.77 896.72 1310.58 900.159 1307.52 904.661 1305.95 909.252 1306.19 913.749 1305.93 918.157 1307.52 921.462 1310.58 924.493 1313.64 926.101 1317.84 925.895 1322.14 926.165 1326.72 924.514 1331.21 921.338 1334.53 917.972 1337.62 913.498 1339.23 908.93 1338.98ZM909.178 1313.57C907.131 1313.47 905.157 1314.34 903.853 1315.93 902.479 1317.86 901.815 1320.22 901.971 1322.59 901.971 1328.58 904.389 1331.58 909.227 1331.58 914.065 1331.58 916.376 1328.5 916.162 1322.34 916.112 1316.45 913.76 1313.5 909.103 1313.5ZM930.13 1337.32 930.13 1329.5C931.616 1330.41 933.215 1331.13 934.885 1331.63 936.337 1332.08 937.847 1332.32 939.368 1332.35 940.75 1332.4 942.128 1332.16 943.405 1331.63 944.301 1331.3 944.896 1330.45 944.891 1329.5 944.903 1328.91 944.659 1328.35 944.222 1327.96 943.694 1327.53 943.111 1327.17 942.489 1326.9 941.738 1326.58 940.969 1326.31 940.186 1326.08 939.343 1325.83 938.551 1325.56 937.709 1325.26 936.585 1324.84 935.492 1324.33 934.44 1323.75 933.517 1323.26 932.681 1322.63 931.963 1321.87 931.313 1321.15 930.816 1320.31 930.502 1319.39 930.135 1318.33 929.959 1317.2 929.982 1316.07 929.942 1314.48 930.345 1312.92 931.146 1311.54 931.89 1310.27 932.936 1309.21 934.192 1308.45 935.573 1307.64 937.08 1307.08 938.65 1306.79 940.333 1306.41 942.053 1306.23 943.777 1306.24 945.186 1306.24 946.594 1306.35 947.987 1306.56 949.41 1306.77 950.817 1307.08 952.197 1307.48L952.197 1314.91C950.966 1314.19 949.641 1313.65 948.259 1313.3 946.924 1312.96 945.551 1312.79 944.173 1312.78 943.567 1312.78 942.962 1312.83 942.365 1312.93 941.862 1313.04 941.372 1313.21 940.904 1313.42 940.507 1313.61 940.159 1313.89 939.888 1314.24 939.642 1314.58 939.511 1314.99 939.517 1315.41 939.517 1315.94 939.71 1316.46 940.062 1316.87 940.474 1317.3 940.961 1317.65 941.498 1317.91 942.136 1318.22 942.799 1318.49 943.48 1318.7L945.634 1319.42C946.821 1319.84 947.98 1320.33 949.102 1320.9 950.083 1321.38 950.985 1322.01 951.776 1322.76 952.513 1323.46 953.095 1324.3 953.485 1325.24 954.45 1327.92 954.234 1330.89 952.891 1333.41 952.086 1334.72 950.982 1335.81 949.671 1336.61 948.249 1337.46 946.691 1338.08 945.065 1338.41 943.282 1338.79 941.464 1338.99 939.641 1338.98 936.399 1338.98 933.183 1338.41 930.13 1337.32ZM974.586 1338.98C970.035 1339.26 965.564 1337.68 962.203 1334.6 959.124 1331.43 957.501 1327.12 957.72 1322.71 957.466 1318.19 959.161 1313.77 962.376 1310.58 965.818 1307.53 970.318 1305.95 974.908 1306.19 979.412 1305.94 983.826 1307.52 987.143 1310.58 990.155 1313.65 991.752 1317.84 991.552 1322.14 991.822 1326.72 990.17 1331.21 986.995 1334.53 983.629 1337.62 979.154 1339.23 974.586 1338.98ZM974.834 1313.57C972.793 1313.47 970.825 1314.34 969.534 1315.93 968.152 1317.86 967.478 1320.21 967.627 1322.59 967.627 1328.58 970.046 1331.58 974.884 1331.58 979.721 1331.58 982.033 1328.5 981.818 1322.34 981.818 1316.45 979.49 1313.5 974.834 1313.5ZM1017.36 1299.36C1016.22 1298.9 1015.01 1298.66 1013.79 1298.64 1010.7 1298.64 1009.16 1300.3 1009.16 1303.59L1009.16 1306.79 1016.29 1306.79 1016.29 1313.92 1009.16 1313.92 1009.16 1338.07 999.526 1338.07 999.526 1313.99 994.276 1313.99 994.276 1306.79 999.526 1306.79 999.526 1303C999.406 1299.76 1000.69 1296.63 1003.04 1294.4 1005.65 1292.12 1009.04 1290.95 1012.5 1291.13 1014.18 1291.09 1015.85 1291.3 1017.46 1291.75ZM1041.04 1337.77C1039 1338.64 1036.8 1339.03 1034.6 1338.91 1027.79 1338.91 1024.39 1335.38 1024.39 1328.31L1024.39 1313.99 1019.32 1313.99 1019.32 1306.79 1024.39 1306.79 1024.39 1300.12 1034 1297.38 1034 1306.79 1041.04 1306.79 1041.04 1313.92 1034 1313.92 1034 1326.6C1034 1329.87 1035.29 1331.55 1037.89 1331.55 1038.99 1331.52 1040.07 1331.23 1041.04 1330.69Z" fill="#FFFFFF"/><path d="M1231.84 1471.41C1225.53 1462.55 1215.94 1456.59 1205.21 1454.84 1178.33 1450.25 1151.4 1446.25 1124.4 1442.83 976.319 1424.18 826.483 1424.18 678.402 1442.83 651.522 1446.25 624.65 1450.25 597.786 1454.84 587.055 1456.59 577.469 1462.55 571.162 1471.41 565.952 1478.77 563.942 1487.93 565.59 1496.8L592.833 1638.93C596.785 1658.09 615.216 1670.66 634.491 1667.34 651.646 1664.38 668.834 1661.72 686.055 1659.34 834.065 1638.83 984.245 1639.55 1132.05 1661.47 1144.32 1663.27 1156.56 1665.23 1168.76 1667.34 1170.79 1667.68 1172.84 1667.86 1174.9 1667.86 1192.12 1667.88 1206.96 1655.77 1210.41 1638.91L1237.53 1496.82C1239.15 1487.93 1237.1 1478.76 1231.84 1471.41Z" fill="#505050"/><path d="M1202.81 1468.81C1003.42 1434.43 799.609 1434.43 600.214 1468.81 593.243 1469.92 587.002 1473.76 582.877 1479.48 579.834 1483.71 578.629 1488.99 579.533 1494.12L606.777 1636.18C609.204 1647.79 620.413 1655.37 632.088 1653.3 810.461 1622.52 992.786 1622.52 1171.16 1653.3 1182.79 1655.27 1193.91 1647.72 1196.37 1636.18L1223.47 1494.15C1224.4 1489.01 1223.21 1483.72 1220.17 1479.48 1216.04 1473.75 1209.79 1469.91 1202.81 1468.81Z" fill="#FFFFFF"/></g></g></g><path d="M818.782 1485.42C818.563 1486.81 818.292 1488.19 817.967 1489.57 817.642 1490.96 817.26 1492.34 816.821 1493.72L812.649 1506.51 827.195 1505.88 822.207 1494.19C821.444 1492.42 820.778 1490.8 820.21 1489.33 819.643 1487.87 819.167 1486.56 818.782 1485.42ZM815.662 1481.04 821.779 1480.78 841.18 1522.93 834.712 1523.21 829.15 1510.43 811.209 1511.2 807.054 1524.4 801.025 1524.66Z" fill-rule="evenodd"/><text fill="#000000" fill-opacity="0" font-family="Arial,Arial_MSFontService,sans-serif" font-size="43.8755" x="801.025" y="1519.17">A</text><path d="M843.193 1479.96 873.943 1479.26 874.058 1484.32 850.633 1514.66 848.095 1517.74 875.507 1517.11 875.622 1522.18 841.679 1522.95 841.559 1517.68 862.928 1489.68C864.44 1487.68 865.886 1485.94 867.264 1484.48L843.308 1485.02Z" fill-rule="evenodd"/><text fill="#000000" fill-opacity="0" font-family="Arial,Arial_MSFontService,sans-serif" font-size="43.6901" x="841.559" y="1517.49">Z</text><path d="M881.644 1479.16 887.324 1479.15 887.365 1503.93C887.372 1507.66 887.728 1510.4 888.434 1512.16 889.14 1513.95 890.329 1515.31 892.001 1516.26 893.673 1517.2 895.739 1517.68 898.201 1517.69 900.295 1517.68 902.084 1517.44 903.569 1516.97 905.054 1516.5 906.242 1515.78 907.133 1514.83 908.025 1513.88 908.69 1512.49 909.13 1510.67 909.569 1508.85 909.786 1506.59 909.781 1503.9L909.74 1479.11 915.42 1479.1 915.461 1503.92C915.463 1508.22 914.981 1511.65 914.014 1514.2 913.533 1515.48 912.855 1516.63 911.978 1517.66 911.101 1518.69 910.026 1519.6 908.754 1520.39 907.479 1521.2 906.003 1521.8 904.325 1522.2 902.647 1522.6 900.774 1522.81 898.707 1522.81 896.699 1522.81 894.87 1522.64 893.22 1522.29 891.57 1521.95 890.106 1521.43 888.829 1520.75 887.553 1520.06 886.455 1519.21 885.537 1518.21 884.62 1517.2 883.888 1516.04 883.343 1514.72 882.799 1513.42 882.387 1511.87 882.109 1510.07 881.831 1508.28 881.69 1506.24 881.686 1503.97Z" fill-rule="evenodd"/><text fill="#000000" fill-opacity="0" font-family="Arial,Arial_MSFontService,sans-serif" font-size="43.7058" x="881.644" y="1517.34">U</text><path d="M931.02 1484.06 930.721 1498.27 942.937 1498.53C944.24 1498.56 945.4 1498.52 946.416 1498.4 947.433 1498.29 948.31 1498.1 949.048 1497.84 949.786 1497.59 950.437 1497.26 951.003 1496.84 951.569 1496.43 952.048 1495.92 952.442 1495.33 952.835 1494.75 953.133 1494.14 953.337 1493.51 953.541 1492.87 953.65 1492.21 953.665 1491.52 953.708 1489.49 953.01 1487.81 951.573 1486.46 950.842 1485.79 949.897 1485.27 948.741 1484.92 947.584 1484.57 946.209 1484.38 944.613 1484.35ZM925.441 1479.2 944.479 1479.6C946.397 1479.64 948.081 1479.77 949.53 1480 950.979 1480.22 952.197 1480.53 953.185 1480.93 954.171 1481.34 955.054 1481.9 955.833 1482.59 956.612 1483.29 957.291 1484.13 957.87 1485.13 958.449 1486.12 958.875 1487.16 959.148 1488.24 959.421 1489.32 959.545 1490.45 959.519 1491.64 959.487 1493.16 959.209 1494.56 958.688 1495.84 958.166 1497.11 957.404 1498.26 956.4 1499.28 955.398 1500.3 954.128 1501.13 952.591 1501.76 951.054 1502.4 949.25 1502.83 947.179 1503.07 948.658 1503.83 949.785 1504.57 950.561 1505.28 951.379 1506.06 952.169 1506.93 952.931 1507.9 953.693 1508.87 954.435 1509.93 955.156 1511.09L962.376 1522.94 955.232 1522.78 949.739 1513.73C948.149 1511.11 946.824 1509.11 945.765 1507.73 944.706 1506.36 943.764 1505.38 942.938 1504.8 942.113 1504.23 941.256 1503.83 940.368 1503.6 939.727 1503.45 938.673 1503.35 937.209 1503.33L930.617 1503.19 930.215 1522.26 924.537 1522.14Z" fill-rule="evenodd"/><text fill="#000000" fill-opacity="0" font-family="Arial,Arial_MSFontService,sans-serif" font-size="43.7333" x="924.537" y="1517.47">R</text><path d="M969.222 1480.26 1000.24 1481.59 1000.03 1486.65 974.679 1485.56 974.115 1498.7 997.853 1499.72 997.637 1504.75 973.899 1503.74 973.272 1518.34 999.615 1519.48 999.398 1524.54 967.381 1523.16Z" fill-rule="evenodd"/><text fill="#000000" fill-opacity="0" font-family="Arial,Arial_MSFontService,sans-serif" font-size="44.2802" x="967.381" y="1519">E</text><path d="M670.875 1569.06C670.771 1570.46 670.613 1571.87 670.402 1573.27 670.192 1574.67 669.924 1576.08 669.6 1577.49L666.488 1590.58 680.934 1588.77 675.006 1577.52C674.1 1575.82 673.304 1574.26 672.619 1572.85 671.934 1571.43 671.353 1570.17 670.875 1569.06ZM667.408 1564.96 673.483 1564.19 696.265 1604.62 689.842 1605.42 683.253 1593.14 665.435 1595.37 662.374 1608.87 656.386 1609.62Z" fill-rule="evenodd"/><text fill="#000000" fill-opacity="0" font-family="Arial,Arial_MSFontService,sans-serif" font-size="45.4253" x="656.386" y="1603.94">A</text><path d="M701.957 1565.95 705.3 1598.6 714.424 1597.66C717.251 1597.37 719.44 1596.88 720.989 1596.2 721.763 1595.85 722.447 1595.46 723.042 1595.03 723.638 1594.6 724.15 1594.12 724.581 1593.59 725.794 1592.11 726.654 1590.2 727.16 1587.86 727.667 1585.51 727.76 1582.73 727.44 1579.51 726.983 1575.05 725.902 1571.69 724.197 1569.42 723.332 1568.3 722.412 1567.38 721.438 1566.67 720.464 1565.96 719.432 1565.46 718.341 1565.16 717.553 1564.94 716.541 1564.83 715.304 1564.81 714.068 1564.79 712.612 1564.86 710.935 1565.03ZM695.791 1561.49 710.507 1559.98C713.83 1559.64 716.386 1559.59 718.177 1559.82 719.43 1559.97 720.606 1560.25 721.705 1560.65 722.803 1561.05 723.821 1561.58 724.757 1562.23 727.21 1563.92 729.145 1566.19 730.563 1569.02 731.981 1571.86 732.885 1575.19 733.274 1579 733.586 1582.26 733.501 1585.18 733.018 1587.75 732.536 1590.32 731.778 1592.49 730.745 1594.25 730.233 1595.14 729.688 1595.95 729.11 1596.66 728.532 1597.37 727.917 1597.99 727.266 1598.53 725.95 1599.62 724.318 1600.51 722.371 1601.2 720.424 1601.89 718.161 1602.37 715.581 1602.64L700.166 1604.21Z" fill-rule="evenodd"/><text fill="#000000" fill-opacity="0" font-family="Arial,Arial_MSFontService,sans-serif" font-size="44.5344" x="695.791" y="1598.65">D</text><path d="M739.308 1557.12 747.835 1556.46 760.297 1586C760.873 1587.39 761.37 1588.59 761.79 1589.62 762.21 1590.65 762.556 1591.5 762.828 1592.19 763.017 1591.39 763.257 1590.41 763.549 1589.23 763.841 1588.05 764.185 1586.69 764.581 1585.15L772.55 1554.57 780.171 1553.98 783.455 1596.8 777.996 1597.22 775.248 1561.38 765.55 1598.18 760.438 1598.57 745.255 1563.07 748.051 1599.52 742.592 1599.94Z" fill-rule="evenodd"/><text fill="#000000" fill-opacity="0" font-family="Arial,Arial_MSFontService,sans-serif" font-size="45.9534" x="739.308" y="1594.19">M</text><path d="M790.836 1553.43 796.507 1553.1 799.008 1595.97 793.337 1596.3Z" fill-rule="evenodd"/><text fill="#000000" fill-opacity="0" font-family="Arial,Arial_MSFontService,sans-serif" font-size="43.2035" x="790.836" y="1590.9">I</text><path d="M807.002 1552.46 812.823 1552.21 836.778 1584.96 835.366 1551.27 840.807 1551.04 842.605 1593.95 836.784 1594.19 812.828 1561.42 814.241 1595.14 808.801 1595.36Z" fill-rule="evenodd"/><text fill="#000000" fill-opacity="0" font-family="Arial,Arial_MSFontService,sans-serif" font-size="44.3247" x="807.002" y="1589.82">N</text><path d="M851.569 1550.79 857.248 1550.65 858.343 1593.58 852.665 1593.72Z" fill-rule="evenodd"/><text fill="#000000" fill-opacity="0" font-family="Arial,Arial_MSFontService,sans-serif" font-size="43.0764" x="851.569" y="1588.34">I</text><path d="M882.596 1549.48C885.79 1549.45 888.608 1549.93 891.05 1550.92 893.483 1551.95 895.361 1553.44 896.683 1555.4 898.004 1557.35 898.732 1559.6 898.866 1562.15L893.424 1562.62C893.117 1559.9 892.104 1557.86 890.385 1556.5 888.666 1555.13 886.165 1554.46 882.881 1554.49 881.166 1554.5 879.683 1554.67 878.432 1555 877.181 1555.32 876.17 1555.8 875.399 1556.44 873.83 1557.71 873.054 1559.25 873.072 1561.03 873.08 1561.81 873.226 1562.51 873.511 1563.14 873.795 1563.77 874.219 1564.33 874.78 1564.82 875.328 1565.32 876.321 1565.81 877.759 1566.31 879.196 1566.8 881.075 1567.3 883.396 1567.79 885.701 1568.29 887.647 1568.76 889.234 1569.2 890.821 1569.64 892.049 1570.06 892.917 1570.44 895.425 1571.58 897.285 1573.02 898.499 1574.78 899.713 1576.53 900.328 1578.55 900.343 1580.86 900.355 1582 900.204 1583.11 899.89 1584.19 899.576 1585.26 899.095 1586.31 898.447 1587.32 897.15 1589.36 895.292 1590.95 892.871 1592.1 891.647 1592.68 890.346 1593.12 888.969 1593.41 887.592 1593.71 886.134 1593.86 884.597 1593.88 880.7 1593.92 877.442 1593.39 874.823 1592.28 873.499 1591.72 872.32 1591.02 871.283 1590.18 870.247 1589.34 869.35 1588.35 868.592 1587.21 867.834 1586.09 867.251 1584.89 866.843 1583.61 866.434 1582.33 866.201 1580.97 866.142 1579.53L871.496 1579.01C871.638 1580.08 871.861 1581.05 872.166 1581.93 872.471 1582.8 872.86 1583.58 873.335 1584.27 874.257 1585.63 875.704 1586.73 877.676 1587.56 878.662 1587.98 879.705 1588.29 880.806 1588.49 881.907 1588.7 883.066 1588.8 884.282 1588.79 885.365 1588.77 886.384 1588.68 887.337 1588.51 888.291 1588.34 889.183 1588.09 890.015 1587.76 891.662 1587.08 892.887 1586.19 893.691 1585.08 894.495 1583.96 894.889 1582.73 894.873 1581.38 894.875 1580.04 894.474 1578.86 893.67 1577.87 892.865 1576.87 891.566 1576.04 889.773 1575.37 888.625 1574.94 886.069 1574.26 882.104 1573.34 880.122 1572.89 878.439 1572.45 877.054 1572.02 875.67 1571.59 874.58 1571.17 873.785 1570.75 871.727 1569.7 870.186 1568.38 869.163 1566.81 868.139 1565.23 867.619 1563.45 867.601 1561.47 867.59 1560.39 867.733 1559.34 868.031 1558.32 868.328 1557.3 868.779 1556.31 869.384 1555.36 869.989 1554.41 870.736 1553.58 871.625 1552.86 872.513 1552.13 873.548 1551.52 874.729 1551.03 875.91 1550.53 877.154 1550.15 878.461 1549.9 879.769 1549.64 881.147 1549.5 882.596 1549.48Z" fill-rule="evenodd"/><text fill="#000000" fill-opacity="0" font-family="Arial,Arial_MSFontService,sans-serif" font-size="44.397" x="866.142" y="1588.33">S</text><path d="M904.864 1550.04 938.901 1550.41 938.846 1555.48 924.638 1555.32 924.226 1593.2 918.546 1593.14 918.958 1555.26 904.809 1555.11Z" fill-rule="evenodd"/><text fill="#000000" fill-opacity="0" font-family="Arial,Arial_MSFontService,sans-serif" font-size="43.1586" x="904.809" y="1587.81">T</text><path d="M951.168 1555.49 950.703 1569.7 962.915 1570.1C964.218 1570.14 965.378 1570.11 966.396 1570.01 967.414 1569.91 968.293 1569.73 969.033 1569.48 969.774 1569.24 970.43 1568.91 971 1568.5 971.571 1568.09 972.056 1567.6 972.457 1567.01 972.856 1566.43 973.162 1565.83 973.373 1565.19 973.585 1564.56 973.702 1563.9 973.724 1563.21 973.791 1561.19 973.113 1559.49 971.692 1558.13 970.968 1557.45 970.03 1556.92 968.878 1556.56 967.725 1556.2 966.352 1555.99 964.757 1555.94ZM945.647 1550.57 964.678 1551.19C966.596 1551.25 968.278 1551.4 969.724 1551.64 971.171 1551.88 972.385 1552.2 973.368 1552.62 974.349 1553.04 975.226 1553.61 975.997 1554.31 976.768 1555.02 977.437 1555.87 978.004 1556.87 978.571 1557.87 978.985 1558.91 979.245 1560 979.506 1561.08 979.616 1562.22 979.577 1563.4 979.526 1564.92 979.233 1566.32 978.696 1567.59 978.16 1568.86 977.384 1570 976.369 1571.01 975.354 1572.01 974.075 1572.83 972.531 1573.44 970.986 1574.06 969.177 1574.47 967.104 1574.69 968.573 1575.46 969.692 1576.21 970.46 1576.94 971.269 1577.72 972.048 1578.61 972.799 1579.58 973.55 1580.56 974.279 1581.63 974.986 1582.8L982.068 1594.73 974.925 1594.49 969.538 1585.38C967.979 1582.73 966.678 1580.72 965.635 1579.33 964.592 1577.94 963.661 1576.96 962.843 1576.37 962.024 1575.78 961.172 1575.37 960.287 1575.14 959.648 1574.97 958.595 1574.87 957.131 1574.83L950.542 1574.61 949.917 1593.67 944.24 1593.49Z" fill-rule="evenodd"/><text fill="#000000" fill-opacity="0" font-family="Arial,Arial_MSFontService,sans-serif" font-size="44.1622" x="944.24" y="1589.21">R</text><path d="M1003.77 1557.45C1003.42 1558.81 1003.01 1560.16 1002.55 1561.5 1002.09 1562.84 1001.58 1564.18 1001 1565.51L995.598 1577.83 1010.13 1578.64 1006.32 1566.51C1005.73 1564.67 1005.23 1562.99 1004.81 1561.48 1004.39 1559.97 1004.04 1558.62 1003.77 1557.45ZM1001.1 1552.78 1007.21 1553.12 1022.38 1596.98 1015.91 1596.62 1011.63 1583.35 993.703 1582.36 988.273 1595.08 982.248 1594.75Z" fill-rule="evenodd"/><text fill="#000000" fill-opacity="0" font-family="Arial,Arial_MSFontService,sans-serif" font-size="44.1927" x="982.248" y="1591.45">A</text><path d="M1026.36 1554.24 1060.3 1556.84 1059.91 1561.89 1045.75 1560.8 1042.86 1598.57 1037.19 1598.14 1040.08 1560.37 1025.97 1559.29Z" fill-rule="evenodd"/><text fill="#000000" fill-opacity="0" font-family="Arial,Arial_MSFontService,sans-serif" font-size="44.3336" x="1025.97" y="1593.03">T</text><path d="M1085.33 1563.38C1081.34 1562.98 1077.76 1564.01 1074.6 1566.47 1073.02 1567.71 1071.75 1569.44 1070.8 1571.66 1069.85 1573.88 1069.21 1576.6 1068.89 1579.82 1068.63 1582.4 1068.75 1584.74 1069.24 1586.84 1069.74 1588.93 1070.61 1590.79 1071.85 1592.4 1074.32 1595.65 1077.64 1597.48 1081.81 1597.89 1083.94 1598.11 1085.92 1597.93 1087.74 1597.35 1089.57 1596.78 1091.25 1595.81 1092.78 1594.45 1094.3 1593.09 1095.51 1591.38 1096.41 1589.33 1097.3 1587.28 1097.89 1584.87 1098.16 1582.12 1098.34 1580.38 1098.35 1578.74 1098.21 1577.19 1098.07 1575.63 1097.78 1574.18 1097.32 1572.82 1096.38 1570.11 1094.86 1567.92 1092.76 1566.27 1091.7 1565.44 1090.55 1564.79 1089.31 1564.31 1088.07 1563.83 1086.75 1563.52 1085.33 1563.38ZM1085.79 1558.51C1089.73 1558.9 1093.19 1560.2 1096.18 1562.4 1099.17 1564.61 1101.33 1567.48 1102.65 1570.99 1103.32 1572.77 1103.76 1574.63 1103.98 1576.58 1104.2 1578.54 1104.2 1580.59 1103.99 1582.73 1103.55 1587.07 1102.29 1590.86 1100.21 1594.1 1099.16 1595.72 1097.96 1597.12 1096.59 1598.29 1095.22 1599.46 1093.69 1600.4 1092 1601.11 1090.31 1601.84 1088.58 1602.34 1086.8 1602.61 1085.02 1602.88 1083.21 1602.92 1081.36 1602.73 1079.35 1602.53 1077.47 1602.1 1075.72 1601.44 1073.97 1600.78 1072.35 1599.88 1070.86 1598.75 1069.37 1597.61 1068.09 1596.32 1067.02 1594.88 1065.96 1593.43 1065.1 1591.83 1064.45 1590.07 1063.16 1586.56 1062.69 1582.92 1063.07 1579.16 1063.42 1575.61 1064.21 1572.5 1065.44 1569.81 1066.66 1567.12 1068.33 1564.87 1070.44 1563.05 1072.55 1561.24 1074.88 1559.96 1077.43 1559.2 1079.99 1558.44 1082.77 1558.21 1085.79 1558.51Z" fill-rule="evenodd"/><text fill="#000000" fill-opacity="0" font-family="Arial,Arial_MSFontService,sans-serif" font-size="44.4591" x="1062.94" y="1597.29">O</text><path d="M1119.18 1567.66 1117.42 1581.76 1129.55 1583.27C1130.84 1583.43 1132 1583.51 1133.02 1583.5 1134.04 1583.49 1134.93 1583.39 1135.7 1583.21 1136.45 1583.04 1137.14 1582.77 1137.74 1582.42 1138.35 1582.06 1138.88 1581.61 1139.33 1581.06 1139.78 1580.53 1140.14 1579.95 1140.41 1579.34 1140.67 1578.72 1140.85 1578.08 1140.94 1577.39 1141.19 1575.39 1140.67 1573.64 1139.37 1572.15 1138.72 1571.4 1137.83 1570.8 1136.71 1570.33 1135.6 1569.86 1134.25 1569.53 1132.67 1569.34ZM1114.12 1562.25 1133.02 1564.6C1134.92 1564.84 1136.59 1565.14 1138 1565.51 1139.42 1565.88 1140.6 1566.31 1141.54 1566.81 1142.48 1567.32 1143.3 1567.97 1144.01 1568.74 1144.71 1569.51 1145.3 1570.42 1145.77 1571.47 1146.25 1572.52 1146.57 1573.59 1146.73 1574.69 1146.89 1575.8 1146.89 1576.94 1146.75 1578.12 1146.56 1579.63 1146.14 1580.99 1145.49 1582.21 1144.84 1583.42 1143.96 1584.49 1142.86 1585.4 1141.76 1586.31 1140.41 1587 1138.82 1587.48 1137.22 1587.95 1135.38 1588.2 1133.3 1588.22 1134.69 1589.13 1135.74 1589.97 1136.44 1590.77 1137.17 1591.62 1137.87 1592.57 1138.53 1593.62 1139.19 1594.66 1139.81 1595.79 1140.41 1597.02L1146.38 1609.54 1139.29 1608.66 1134.75 1599.09C1133.44 1596.31 1132.33 1594.19 1131.42 1592.71 1130.5 1591.24 1129.67 1590.17 1128.9 1589.51 1128.14 1588.85 1127.33 1588.36 1126.47 1588.05 1125.85 1587.83 1124.81 1587.63 1123.36 1587.45L1116.81 1586.64 1114.46 1605.57 1108.82 1604.87Z" fill-rule="evenodd"/><text fill="#000000" fill-opacity="0" font-family="Arial,Arial_MSFontService,sans-serif" font-size="47.2903" x="1108.82" y="1603.63">R</text><path d="M810 1763.7 842.467 1763.7 852.5 1732 862.533 1763.7 895 1763.7 868.733 1783.3 878.767 1815 852.5 1795.41 826.234 1815 836.267 1783.3Z" fill="#FFFFFF" fill-rule="evenodd"/><path d="M908 1763.7 940.085 1763.7 950 1732 959.915 1763.7 992 1763.7 966.042 1783.3 975.957 1815 950 1795.41 924.042 1815 933.958 1783.3Z" fill="#FFFFFF" fill-rule="evenodd"/><path d="M779.213 1683.42 775.397 1697.58 784.443 1697.12ZM775.049 1676.43 782.673 1676.04 796.974 1710.19 789.401 1710.58 786.532 1703.05 773.971 1703.69 771.801 1711.47 764.305 1711.85Z" fill="#FFFFFF" fill-rule="evenodd"/><text fill="#000000" fill-opacity="0" font-family="Arial,Arial_MSFontService,sans-serif" font-size="35.8103" x="764.305" y="1707.37">A</text><path d="M811.022 1674.39C813.401 1674.31 815.6 1674.59 817.617 1675.24 819.635 1675.89 821.266 1676.94 822.51 1678.38 823.753 1679.82 824.417 1681.68 824.5 1683.97L817.052 1684.25C817.015 1682.76 816.423 1681.68 815.276 1680.98 814.129 1680.29 812.77 1679.97 811.201 1680.03 809.65 1680.09 808.376 1680.42 807.38 1681.04 806.383 1681.65 805.907 1682.56 805.951 1683.77 805.976 1684.46 806.214 1685.06 806.664 1685.57 807.114 1686.08 807.931 1686.56 809.113 1687.02 810.294 1687.48 812.001 1687.99 814.231 1688.54 816.897 1689.22 819.09 1689.96 820.811 1690.75 822.532 1691.54 823.826 1692.6 824.694 1693.92 825.563 1695.25 826.037 1697.01 826.117 1699.22 826.207 1701.69 825.676 1703.7 824.525 1705.26 823.373 1706.82 821.772 1707.99 819.72 1708.78 817.668 1709.56 815.332 1710 812.711 1710.09 810.073 1710.19 807.685 1709.9 805.545 1709.23 803.406 1708.55 801.686 1707.42 800.385 1705.83 799.083 1704.24 798.385 1702.12 798.289 1699.48L805.737 1699.21C805.82 1700.56 806.169 1701.6 806.783 1702.35 807.398 1703.09 808.206 1703.61 809.21 1703.9 810.213 1704.19 811.353 1704.32 812.628 1704.27 813.852 1704.22 814.925 1704.04 815.845 1703.71 816.765 1703.39 817.477 1702.91 817.981 1702.27 818.484 1701.64 818.719 1700.85 818.684 1699.91 818.651 1698.99 818.399 1698.25 817.93 1697.67 817.46 1697.09 816.647 1696.57 815.491 1696.12 814.335 1695.67 812.721 1695.2 810.649 1694.71 808.227 1694.11 806.126 1693.42 804.346 1692.66 802.566 1691.9 801.173 1690.88 800.169 1689.6 799.164 1688.32 798.623 1686.64 798.547 1684.53 798.465 1682.27 798.945 1680.41 799.988 1678.95 801.031 1677.49 802.506 1676.39 804.412 1675.64 806.319 1674.9 808.522 1674.48 811.022 1674.39Z" fill="#FFFFFF" fill-rule="evenodd"/><text fill="#000000" fill-opacity="0" font-family="Arial,Arial_MSFontService,sans-serif" font-size="35.7341" x="798.289" y="1705.64">S</text><path d="M842.863 1673.44C845.243 1673.39 847.438 1673.7 849.447 1674.38 851.456 1675.06 853.072 1676.12 854.297 1677.58 855.521 1679.03 856.16 1680.91 856.213 1683.2L848.762 1683.38C848.745 1681.89 848.167 1680.8 847.029 1680.09 845.891 1679.38 844.537 1679.05 842.968 1679.08 841.416 1679.12 840.137 1679.44 839.133 1680.04 838.129 1680.64 837.641 1681.55 837.669 1682.75 837.685 1683.44 837.914 1684.05 838.358 1684.56 838.801 1685.08 839.611 1685.57 840.787 1686.05 841.962 1686.52 843.662 1687.05 845.884 1687.64 848.541 1688.35 850.724 1689.12 852.435 1689.93 854.145 1690.74 855.425 1691.82 856.276 1693.15 857.126 1694.49 857.577 1696.26 857.628 1698.47 857.686 1700.94 857.128 1702.94 855.956 1704.49 854.784 1706.03 853.167 1707.18 851.105 1707.94 849.043 1708.69 846.701 1709.1 844.079 1709.16 841.44 1709.22 839.056 1708.9 836.925 1708.2 834.795 1707.5 833.09 1706.35 831.81 1704.74 830.53 1703.13 829.86 1701 829.799 1698.36L837.25 1698.19C837.315 1699.53 837.65 1700.58 838.255 1701.34 838.859 1702.09 839.661 1702.62 840.66 1702.93 841.659 1703.23 842.797 1703.37 844.073 1703.34 845.298 1703.31 846.373 1703.14 847.297 1702.82 848.222 1702.51 848.94 1702.04 849.452 1701.42 849.964 1700.79 850.209 1700 850.187 1699.06 850.166 1698.14 849.924 1697.39 849.462 1696.81 849 1696.22 848.193 1695.7 847.044 1695.23 845.894 1694.77 844.286 1694.27 842.221 1693.75 839.807 1693.12 837.715 1692.41 835.946 1691.62 834.176 1690.83 832.797 1689.79 831.809 1688.51 830.822 1687.22 830.304 1685.52 830.255 1683.42 830.202 1681.16 830.707 1679.3 831.77 1677.85 832.832 1676.41 834.321 1675.32 836.237 1674.61 838.154 1673.89 840.362 1673.5 842.863 1673.44Z" fill="#FFFFFF" fill-rule="evenodd"/><text fill="#000000" fill-opacity="0" font-family="Arial,Arial_MSFontService,sans-serif" font-size="35.7338" x="829.799" y="1704.7">S</text><path d="M878.741 1678.9C876.463 1678.92 874.635 1679.47 873.256 1680.55 871.877 1681.63 870.88 1683.07 870.266 1684.87 869.653 1686.67 869.355 1688.66 869.375 1690.83 869.394 1692.97 869.726 1694.94 870.372 1696.73 871.017 1698.52 872.039 1699.94 873.438 1701 874.836 1702.05 876.674 1702.57 878.951 1702.55 881.211 1702.53 883.026 1701.98 884.397 1700.9 885.768 1699.82 886.764 1698.37 887.387 1696.58 888.009 1694.78 888.311 1692.81 888.292 1690.67 888.272 1688.49 887.935 1686.51 887.281 1684.72 886.627 1682.93 885.605 1681.51 884.215 1680.45 882.826 1679.4 881.001 1678.88 878.741 1678.9ZM878.687 1672.84C882.327 1672.81 885.413 1673.52 887.945 1674.97 890.477 1676.43 892.41 1678.49 893.745 1681.16 895.08 1683.83 895.764 1686.98 895.796 1690.6 895.828 1694.22 895.201 1697.37 893.913 1700.05 892.626 1702.73 890.729 1704.81 888.224 1706.31 885.718 1707.81 882.645 1708.57 879.005 1708.61 875.365 1708.64 872.274 1707.93 869.734 1706.48 867.193 1705.02 865.256 1702.97 863.921 1700.32 862.586 1697.66 861.902 1694.52 861.87 1690.9 861.838 1687.28 862.466 1684.12 863.753 1681.43 865.04 1678.73 866.941 1676.64 869.455 1675.14 871.969 1673.64 875.047 1672.88 878.687 1672.84Z" fill="#FFFFFF" fill-rule="evenodd"/><text fill="#000000" fill-opacity="0" font-family="Arial,Arial_MSFontService,sans-serif" font-size="35.7654" x="861.869" y="1704.14">O</text><path d="M918.032 1672.8C920.758 1672.82 923.265 1673.3 925.554 1674.26 927.843 1675.21 929.697 1676.61 931.118 1678.46 932.538 1680.3 933.309 1682.57 933.43 1685.26L925.977 1685.22C925.796 1683.8 925.342 1682.63 924.615 1681.69 923.887 1680.75 922.956 1680.05 921.82 1679.58 920.684 1679.1 919.409 1678.86 917.994 1678.85 915.717 1678.84 913.88 1679.38 912.485 1680.48 911.089 1681.57 910.071 1683.01 909.43 1684.79 908.789 1686.57 908.462 1688.53 908.449 1690.65 908.436 1692.75 908.738 1694.7 909.357 1696.5 909.975 1698.3 910.975 1699.75 912.357 1700.84 913.74 1701.94 915.569 1702.49 917.846 1702.51 920.245 1702.52 922.142 1701.92 923.538 1700.69 924.935 1699.47 925.744 1697.72 925.965 1695.44L933.418 1695.49C933.193 1698.33 932.428 1700.73 931.121 1702.68 929.815 1704.63 928.038 1706.1 925.789 1707.1 923.54 1708.09 920.88 1708.58 917.809 1708.56 914.289 1708.54 911.266 1707.78 908.739 1706.29 906.212 1704.8 904.276 1702.72 902.929 1700.05 901.583 1697.37 900.921 1694.22 900.944 1690.6 900.967 1686.98 901.668 1683.83 903.047 1681.15 904.427 1678.48 906.39 1676.41 908.935 1674.95 911.48 1673.49 914.513 1672.78 918.032 1672.8Z" fill="#FFFFFF" fill-rule="evenodd"/><text fill="#000000" fill-opacity="0" font-family="Arial,Arial_MSFontService,sans-serif" font-size="35.765" x="900.943" y="1704.09">C</text><path d="M940.175 1673.5 947.446 1673.63 946.863 1708.45 939.592 1708.33Z" fill="#FFFFFF" fill-rule="evenodd"/><text fill="#000000" fill-opacity="0" font-family="Arial,Arial_MSFontService,sans-serif" font-size="34.9498" x="939.592" y="1704.09">I</text><path d="M967.944 1681.28 963.048 1695.11 972.102 1695.35ZM964.331 1673.99 971.963 1674.19 983.589 1709.34 976.009 1709.14 973.728 1701.42 961.155 1701.09 958.392 1708.68 950.89 1708.48Z" fill="#FFFFFF" fill-rule="evenodd"/><text fill="#000000" fill-opacity="0" font-family="Arial,Arial_MSFontService,sans-serif" font-size="35.3544" x="950.89" y="1704.93">A</text><path d="M984.696 1674.55 1010.53 1675.55 1010.3 1681.6 1001.04 1681.24 999.929 1710 992.662 1709.72 993.772 1680.96 984.463 1680.6Z" fill="#FFFFFF" fill-rule="evenodd"/><text fill="#000000" fill-opacity="0" font-family="Arial,Arial_MSFontService,sans-serif" font-size="35.4469" x="984.463" y="1705.57">T</text><path d="M1015.12 1675.77 1038.46 1676.96 1038.15 1682.99 1022.08 1682.16 1021.66 1690.25 1036.24 1691 1035.94 1696.81 1021.36 1696.06 1020.91 1704.9 1036.98 1705.73 1036.67 1711.75 1013.34 1710.55Z" fill="#FFFFFF" fill-rule="evenodd"/><text fill="#000000" fill-opacity="0" font-family="Arial,Arial_MSFontService,sans-serif" font-size="35.9855" x="1013.34" y="1707.25">E</text></g></svg>