<svg width="473" height="446" xmlns="http://www.w3.org/2000/svg" xmlns:xlink="http://www.w3.org/1999/xlink" xml:space="preserve" overflow="hidden"><defs><clipPath id="clip0"><rect x="1934" y="976" width="473" height="446"/></clipPath><linearGradient x1="2203.33" y1="961.475" x2="1962.67" y2="1436.53" gradientUnits="userSpaceOnUse" spreadMethod="reflect" id="fill1"><stop offset="0" stop-color="#114A8B"/><stop offset="0.5" stop-color="#0B59A3"/><stop offset="1" stop-color="#0669BC"/></linearGradient><linearGradient x1="2394.17" y1="1119.44" x2="1888.83" y2="1278.56" gradientUnits="userSpaceOnUse" spreadMethod="reflect" id="fill2"><stop offset="0" stop-color="#000000" stop-opacity="0.298039"/><stop offset="0.071" stop-color="#000000" stop-opacity="0.2"/><stop offset="0.321" stop-color="#000000" stop-opacity="0.0980392"/><stop offset="0.623" stop-color="#000000" stop-opacity="0.0470588"/><stop offset="1" stop-color="#000000" stop-opacity="0"/></linearGradient><linearGradient x1="2122.97" y1="960.51" x2="2378.03" y2="1437.49" gradientUnits="userSpaceOnUse" spreadMethod="reflect" id="fill3"><stop offset="0" stop-color="#3CCBF4"/><stop offset="0.5" stop-color="#32AEE9"/><stop offset="1" stop-color="#2892DF"/></linearGradient></defs><g clip-path="url(#clip0)" transform="translate(-1934 -976)"><path d="M2091.87 976.005 2232 976.005 2086.53 1406.81C2083.47 1415.89 2074.95 1422 2065.37 1422L1956.31 1422C1943.99 1422 1934 1412.02 1934 1399.71 1934 1397.28 1934.39 1394.87 1935.17 1392.58L2070.7 991.196C2073.76 982.115 2082.28 976 2091.87 976Z" fill="url(#fill1)" fill-rule="evenodd"/><path d="M2295.34 1265 2073.29 1265C2067.61 1264.99 2063.01 1269.59 2063 1275.27 2063 1278.12 2064.18 1280.85 2066.27 1282.8L2208.96 1415.97C2213.11 1419.85 2218.58 1422 2224.26 1422L2350 1422Z" fill="#0078D4" fill-rule="evenodd"/><path d="M2091.6 976C2081.92 975.963 2073.33 982.238 2070.42 991.487L1935.31 1392.21C1931.16 1403.79 1937.18 1416.54 1948.74 1420.69 1951.17 1421.56 1953.73 1422.01 1956.31 1422L2068.01 1422C2076.48 1420.49 2083.48 1414.53 2086.33 1406.4L2113.27 1326.91 2209.51 1416.77C2213.54 1420.11 2218.6 1421.96 2223.84 1422L2349 1422 2294.1 1264.96 2134.08 1265 2232.02 976Z" fill="url(#fill2)" fill-rule="evenodd"/><path d="M2270.74 991.169C2267.69 982.103 2259.21 975.999 2249.67 976L2094 976C2103.54 976 2112.02 982.104 2115.07 991.169L2250.17 1392.57C2254.09 1404.24 2247.84 1416.89 2236.21 1420.83 2233.91 1421.6 2231.51 1422 2229.09 1422L2384.77 1422C2397.05 1422 2407 1412.01 2407 1399.69 2407 1397.27 2406.6 1394.86 2405.83 1392.57Z" fill="url(#fill3)" fill-rule="evenodd"/></g></svg>