

<svg xmlns="http://www.w3.org/2000/svg" width="76" height="68">
  <g fill="#006469" fill-rule="nonzero">
    <path d="M0 0v52h9.151V29.195h10.982v-7.822H9.151V7.492H31V0zM35 52h9V34.703l-9-10.025V52Zm0-52v24.678l9-9.364V0h-9ZM64.33 0 40 24.568v.11L64.661 52H76L50.899 24.568 75.56 0zM76 67.78v-8.56h-1.337v6.365l-.892-1.317-3.9-5.048h-1.337v8.56h1.337v-6.475c.223.33.446.658.891 1.207l4.012 5.268H76ZM65.636 63.5c0 1.976-1.114 3.183-2.897 3.183-1.783 0-2.897-1.207-2.897-3.183 0-1.976 1.114-3.183 2.897-3.183 1.783 0 2.897 1.317 2.897 3.183m-7.243.11c0 1.317.446 2.524 1.337 3.292A4.568 4.568 0 0 0 62.74 68c1.226 0 2.34-.439 3.12-1.207.78-.769 1.226-1.866 1.226-3.183 0-1.208-.334-2.195-1.114-3.073-.78-.878-1.895-1.317-3.232-1.317-1.226 0-2.34.439-3.12 1.207-.78.768-1.226 1.866-1.226 3.183M55.718 59.22h1.337v8.561h-1.337zM54.938 59.22h-6.686v1.207h2.563v7.353h1.337v-7.353h2.341zM47.36 64.707V59.22h-1.337v5.378c0 .658-.111 1.097-.445 1.536-.335.33-.892.549-1.56.549-.669 0-1.226-.22-1.56-.549-.335-.439-.558-.988-.558-1.536V59.22h-1.337v5.378c0 .878.223 1.756.892 2.414.557.549 1.337.768 2.563.768 1.225 0 2.117-.329 2.674-.878.446-.548.669-1.317.669-2.195M37.889 65.256c0 .768-.558 1.317-1.672 1.317h-1.114V63.94h1.114c1.003.11 1.672.549 1.672 1.317m-1.895-4.83c.892 0 1.337.44 1.337 1.208s-.668 1.207-1.225 1.207h-1.003v-2.414h.891Zm3.232 4.83c0-1.097-.78-1.866-1.672-2.085.669-.33 1.115-.988 1.115-1.756 0-.988-.78-2.086-2.452-2.086h-2.674v8.561h2.563c2.34-.11 3.12-1.427 3.12-2.634M30.645 59.22h1.337v8.561h-1.337zM27.413 61.744c0 .768-.668 1.536-1.56 1.536h-.78v-2.853h.78c1.115 0 1.56.549 1.56 1.317m2.452 6.036c-1.337-2.195-2.229-3.731-2.674-3.841.891-.33 1.671-1.098 1.671-2.195 0-1.317-.78-2.415-3.009-2.415h-2.117v8.561h1.337v-3.622h.78c.335.11 1.003 1.208 2.34 3.403h1.672v.11ZM23.179 59.22h-6.686v1.207h2.451v7.353h1.449v-7.353h2.34zM16.158 65.476c0-2.635-3.788-2.525-3.788-4.28 0-.66.668-.989 1.337-.989.668 0 1.337.22 2.006.55v-1.318c-.446-.22-1.115-.439-2.006-.439-1.783 0-2.675.988-2.675 2.305 0 .658.223 1.097.557 1.536 1.003 1.098 3.12 1.427 3.12 2.744 0 .769-.78 1.098-1.56 1.098s-1.448-.33-1.894-.659l-.557.988c.557.33 1.337.768 2.563.768 1.672.11 2.897-.878 2.897-2.304M8.469 59.22h1.337v8.561H8.469zM5.683 63.39c0 1.647-.891 3.183-3.343 3.183H1.337v-6.146H2.34c2.229 0 3.343 1.317 3.343 2.963m1.449 0c0-2.414-1.56-4.17-4.792-4.17H0v8.56h2.34c3.12 0 4.792-1.865 4.792-4.39"/>
  </g>
</svg>